<svg width="1440" height="1095" viewBox="0 0 1440 1095" fill="none" xmlns="http://www.w3.org/2000/svg">
<path d="M764.299 409.066C897.499 169.679 1147.64 13.3173 1437.97 1.13315C1728.29 -11.0509 1437.97 817 1437.97 817H0C509.958 776.664 681.431 557.996 764.299 409.066Z" fill="#FFECEC"/>
<path d="M338.178 1003.77C170.569 980.669 0 815.078 0 815.078H1635.22L1606.2 904.612C1559.38 951.485 1492.48 1036.99 1414.9 1003.77C1337.31 970.56 1055.99 967.19 819.681 1060.09C583.371 1153 505.786 1026.88 338.178 1003.77Z" fill="#FFECEC"/>
<path d="M764.299 409.066C897.499 169.679 1147.64 13.3173 1437.97 1.13315C1728.29 -11.0509 1437.97 817 1437.97 817H0C509.958 776.664 681.431 557.996 764.299 409.066Z" stroke="#FFECEC"/>
<path d="M338.178 1003.77C170.569 980.669 0 815.078 0 815.078H1635.22L1606.2 904.612C1559.38 951.485 1492.48 1036.99 1414.9 1003.77C1337.31 970.56 1055.99 967.19 819.681 1060.09C583.371 1153 505.786 1026.88 338.178 1003.77Z" stroke="#FFECEC"/>
</svg>
